<svg width="367" height="72" viewBox="0 0 367 72" fill="none" xmlns="http://www.w3.org/2000/svg">
<path fill-rule="evenodd" clip-rule="evenodd" d="M24 0H20C8.9543 0 0 8.95431 0 20V52C0 63.0457 8.95431 72 20 72H347C358.046 72 367 63.0457 367 52V20C367 8.95431 358.046 0 347 0H153V1.6H347C357.162 1.6 365.4 9.83796 365.4 20V52C365.4 62.162 357.162 70.4 347 70.4H20C9.83797 70.4 1.6 62.162 1.6 52V20C1.6 9.83796 9.83796 1.6 20 1.6H24V0Z" fill="url(#paint0_linear_203_18)"/>
<defs>
<linearGradient id="paint0_linear_203_18" x1="183.5" y1="0" x2="183.5" y2="72" gradientUnits="userSpaceOnUse">
<stop stop-color="#FF8D4D"/>
<stop offset="1" stop-color="#F87C47"/>
</linearGradient>
</defs>
</svg>
